<?xml version="1.0" encoding="UTF-8" standalone="no"?>
<!-- Created with Inkscape (http://www.inkscape.org/) -->

<svg
   width="446.01389mm"
   height="97.693924mm"
   viewBox="0 0 446.01389 97.693924"
   version="1.1"
   id="svg5"
   xml:space="preserve"
   xmlns:inkscape="http://www.inkscape.org/namespaces/inkscape"
   xmlns:sodipodi="http://sodipodi.sourceforge.net/DTD/sodipodi-0.dtd"
   xmlns="http://www.w3.org/2000/svg"
   xmlns:svg="http://www.w3.org/2000/svg"><sodipodi:namedview
     id="namedview7"
     pagecolor="#ffffff"
     bordercolor="#999999"
     borderopacity="1"
     inkscape:showpageshadow="0"
     inkscape:pageopacity="0"
     inkscape:pagecheckerboard="0"
     inkscape:deskcolor="#d1d1d1"
     inkscape:document-units="mm"
     showgrid="false" /><defs
     id="defs2"><rect
       x="433.64835"
       y="25.748077"
       width="346.26398"
       height="354.78732"
       id="rect529" /></defs><g
     inkscape:label="Capa 1"
     inkscape:groupmode="layer"
     id="layer1"
     transform="translate(92.504412,116.26821)"><g
       id="g410"
       transform="matrix(0.73083545,0,0,0.69294397,37.310149,-60.020191)"
       inkscape:export-filename="g410.svg"
       inkscape:export-xdpi="96"
       inkscape:export-ydpi="96"><path
         style="fill:#b1cfd4;stroke-width:0.264583"
         d="M -177.62415,39.668854 V 22.740562 l 0.59531,-0.138862 c 0.32742,-0.07637 2.14313,-0.167939 4.0349,-0.203477 l 3.43958,-0.06462 V 14.263815 6.1940235 l -3.43958,-0.064617 c -1.89177,-0.035539 -3.70748,-0.1271058 -4.0349,-0.2034778 l -0.59531,-0.1388612 V -11.136184 -28.059436 l 0.59531,-0.138861 c 0.32742,-0.07637 2.14313,-0.167939 4.0349,-0.203478 l 3.43958,-0.06462 v -8.069792 -8.069791 l -3.43958,-0.06462 c -1.89177,-0.03554 -3.70748,-0.127105 -4.0349,-0.203477 l -0.59531,-0.138862 v -16.928292 -16.928292 h 67.73333 67.73333 v 16.905025 c 0,15.171096 -0.04293,16.921497 -0.418515,17.065624 -0.230182,0.08833 -2.003383,0.160599 -3.940442,0.160599 -2.967461,0 -3.547211,0.06589 -3.682527,0.418516 -0.209597,0.5462 -0.209597,15.020934 0,15.567135 0.135316,0.352629 0.715066,0.418515 3.682527,0.418515 1.937059,0 3.71026,0.07227 3.940442,0.1606 0.375578,0.144121 0.418515,1.892032 0.418515,17.037316 0,15.1452837 -0.04294,16.8931952 -0.418515,17.0373164 -0.230182,0.088331 -2.003383,0.1605994 -3.940442,0.1605994 -2.967461,0 -3.547211,0.065887 -3.682527,0.4185153 -0.209597,0.5462005 -0.209597,15.0209349 0,15.5671349 0.135316,0.352629 0.715066,0.418516 3.682527,0.418516 1.937059,0 3.71026,0.07227 3.940442,0.160599 0.375589,0.144127 0.418515,1.894528 0.418515,17.065624 v 16.905025 h -67.73333 -67.73333 z"
         id="path424" /><path
         style="fill:#eecd28;stroke-width:0.264583"
         d="M -177.62415,39.670531 V 22.743919 l 4.16719,-0.07287 4.16718,-0.07286 V 14.263815 5.9294402 l -4.16718,-0.072864 -4.16719,-0.072866 V -11.136184 -28.056078 l 4.16719,-0.07287 4.16718,-0.07286 v -8.334375 -8.334374 l -4.16718,-0.07286 -4.16719,-0.07287 V -61.9429 -78.869514 h 67.73333 67.73333 v 16.933333 16.933332 h -4.072734 c -3.469724,0 -4.096511,0.06197 -4.233333,0.418515 -0.209611,0.546238 -0.209611,15.550065 0,16.096302 0.136822,0.35655 0.763609,0.418516 4.233333,0.418516 h 4.072734 v 16.933332 16.9333325 h -4.072734 c -3.469724,0 -4.096511,0.061965 -4.233333,0.4185153 -0.209611,0.5462375 -0.209611,15.5500642 0,16.0963022 0.136822,0.35655 0.763609,0.418515 4.233333,0.418515 h 4.072734 v 16.933332 16.933333 h -67.73333 -67.73333 z m 122.502077,-0.0067 v -3.704166 h -17.991665 -17.991666 v 3.704166 3.704167 h 17.991666 17.991665 z m 0,-50.799997 v -3.704166 h -17.991665 -17.991666 v 3.704166 3.7041665 h 17.991666 17.991665 z m 0,-50.799997 v -3.704167 h -17.991665 -17.991666 v 3.704167 3.704166 h 17.991666 17.991665 z"
         id="path422" /><path
         style="fill:#1fc899;stroke-width:0.264583"
         d="M -177.62415,39.670531 V 22.743919 l 4.16719,-0.07287 4.16718,-0.07286 V 14.263815 5.9294402 l -4.16718,-0.072864 -4.16719,-0.072866 V -11.136184 -28.056078 l 4.16719,-0.07287 4.16718,-0.07286 v -8.334375 -8.334374 l -4.16718,-0.07286 -4.16719,-0.07287 V -61.9429 -78.869514 h 67.73333 67.73333 v 16.933333 16.933332 h -4.072734 c -3.469724,0 -4.096511,0.06197 -4.233333,0.418515 -0.209611,0.546238 -0.209611,15.550065 0,16.096302 0.136822,0.35655 0.763609,0.418516 4.233333,0.418516 h 4.072734 v 16.933332 16.9333325 h -4.072734 c -3.469724,0 -4.096511,0.061965 -4.233333,0.4185153 -0.209611,0.5462375 -0.209611,15.5500642 0,16.0963022 0.136822,0.35655 0.763609,0.418515 4.233333,0.418515 h 4.072734 v 16.933332 16.933333 h -67.73333 -67.73333 z m 37.83541,0.02159 c 0,-3.107827 -0.0647,-3.700676 -0.41851,-3.836458 -0.23018,-0.08833 -1.88732,-0.160599 -3.68253,-0.160599 -1.7952,0 -3.45234,0.07227 -3.68252,0.160599 -0.35385,0.135782 -0.41852,0.728631 -0.41852,3.836458 v 3.675859 h 4.10104 4.10104 z m 84.666667,-0.02831 v -3.704166 h -17.991665 -17.991666 v 3.704166 3.704167 h 17.991666 17.991665 z M -140.20725,-7.3280336 c 0.35363,-0.1356995 0.41851,-0.7261357 0.41851,-3.8081504 0,-3.082015 -0.0649,-3.672451 -0.41851,-3.80815 -0.54489,-0.209093 -6.82016,-0.209093 -7.36505,0 -0.35368,0.135718 -0.41852,0.726688 -0.41852,3.81441 0,2.6754851 0.0886,3.689543 0.33073,3.7872616 0.47743,0.1926484 6.95579,0.2053642 7.45284,0.014631 z m 85.085177,-3.8081504 v -3.704166 h -17.991665 -17.991666 v 3.704166 3.7041665 h 17.991666 17.991665 z m -85.085177,-46.991847 c 0.35384,-0.135781 0.41851,-0.728631 0.41851,-3.836458 v -3.675859 h -4.10104 -4.10104 v 3.682118 c 0,2.698131 0.0884,3.717781 0.33073,3.81557 0.47743,0.192647 6.95579,0.205364 7.45284,0.01463 z m 85.085177,-3.80815 v -3.704167 h -17.991665 -17.991666 v 3.704167 3.704166 h 17.991666 17.991665 z"
         id="path420" /><path
         style="fill:#5d9770;stroke-width:0.264583"
         d="M -177.62415,39.645189 V 22.69323 l 4.11299,0.08477 c 3.92986,0.08099 4.1187,0.06121 4.24127,-0.444397 0.0705,-0.291042 0.0949,-4.101041 0.0542,-8.466666 l -0.0741,-7.9374998 -4.16718,-0.072864 -4.16719,-0.072866 V -11.136184 -28.056078 l 4.16719,-0.07287 4.16718,-0.07286 0.0741,-7.9375 c 0.0407,-4.365625 0.0163,-8.175624 -0.0542,-8.466666 -0.12257,-0.505606 -0.31141,-0.525391 -4.24127,-0.444397 l -4.11299,0.08477 V -61.91756 -78.869517 h 67.73333 67.73333 v 16.933333 16.933332 h -4.072734 c -3.469724,0 -4.096511,0.06197 -4.233333,0.418515 -0.209611,0.546238 -0.209611,15.550065 0,16.096302 0.136822,0.35655 0.763609,0.418516 4.233333,0.418516 h 4.072734 v 16.933332 16.9333325 h -4.072734 c -3.469724,0 -4.096511,0.061965 -4.233333,0.4185153 -0.209611,0.5462375 -0.209611,15.5500642 0,16.0963022 0.136822,0.35655 0.763609,0.418515 4.233333,0.418515 h 4.072734 V 39.66381 56.597143 h -67.73333 -67.73333 z m 20.57135,4.085193 c 0.58331,-0.156318 0.59532,-0.238397 0.59532,-4.069119 0,-3.320955 -0.063,-3.933764 -0.41852,-4.070183 -0.81262,-0.311833 -7.66089,-0.17744 -7.99523,0.1569 -0.21616,0.216157 -0.3175,1.478746 -0.3175,3.955603 0,3.185734 0.0576,3.671636 0.46302,3.907787 0.49586,0.288814 6.6813,0.384755 7.67291,0.119012 z m 17.26406,-4.038261 c 0,-3.107827 -0.0647,-3.700676 -0.41851,-3.836458 -0.23018,-0.08833 -1.88732,-0.160599 -3.68253,-0.160599 -1.7952,0 -3.45234,0.07227 -3.68252,0.160599 -0.35385,0.135782 -0.41852,0.728631 -0.41852,3.836458 v 3.675859 h 4.10104 4.10104 z m 84.666667,-0.02831 v -3.704166 h -17.991665 -17.991666 v 3.704166 3.704167 h 17.991666 17.991665 z M -156.876,-7.0634503 c 0.627,-0.2406015 0.627,-7.9048657 0,-8.1454677 -0.70954,-0.272277 -7.25823,-0.17717 -7.80096,0.113292 -0.46834,0.250645 -0.51177,0.586394 -0.51177,3.955603 0,3.2272655 0.0571,3.7149984 0.46302,3.9513957 0.49468,0.2881259 7.14856,0.3942344 7.84971,0.125177 z m 16.66875,-0.2645833 c 0.35363,-0.1356995 0.41851,-0.7261357 0.41851,-3.8081504 0,-3.082015 -0.0649,-3.672451 -0.41851,-3.80815 -0.54489,-0.209093 -6.82016,-0.209093 -7.36505,0 -0.35368,0.135718 -0.41852,0.726688 -0.41852,3.81441 0,2.6754851 0.0886,3.689543 0.33073,3.7872616 0.47743,0.1926484 6.95579,0.2053642 7.45284,0.014631 z m 85.085177,-3.8081504 v -3.704166 h -17.991665 -17.991666 v 3.704166 3.7041665 h 17.991666 17.991665 z M -156.876,-57.863448 c 0.3555,-0.136419 0.41852,-0.749229 0.41852,-4.070182 0,-3.830724 -0.012,-3.912802 -0.59532,-4.069121 -1.00455,-0.269211 -7.08049,-0.183837 -7.62416,0.107129 -0.46792,0.250424 -0.51177,0.585942 -0.51177,3.915833 0,2.479843 0.10131,3.743251 0.3175,3.959441 0.33434,0.334342 7.18261,0.468734 7.99523,0.1569 z m 16.66875,-0.264583 c 0.35384,-0.135781 0.41851,-0.728631 0.41851,-3.836458 v -3.675859 h -4.10104 -4.10104 v 3.682118 c 0,2.698131 0.0884,3.717781 0.33073,3.81557 0.47743,0.192647 6.95579,0.205364 7.45284,0.01463 z m 85.085177,-3.80815 v -3.704167 h -17.991665 -17.991666 v 3.704167 3.704166 h 17.991666 17.991665 z"
         id="path418" /><path
         style="fill:#0a779b;stroke-width:0.264583"
         d="m -177.62452,39.729959 -3.7e-4,-16.867186 3.98489,0.08545 c 2.81417,0.06035 4.09686,-0.0075 4.366,-0.230836 0.56695,-0.470527 0.56695,-16.4366219 0,-16.9071489 -0.26914,-0.2233639 -1.55183,-0.2911819 -4.366,-0.2308357 l -3.98489,0.085452 V -11.136184 -27.937225 l 3.98489,0.08545 c 2.81417,0.06035 4.09686,-0.0075 4.366,-0.230836 0.56695,-0.470527 0.56695,-16.436622 0,-16.907149 -0.26914,-0.223364 -1.55183,-0.291182 -4.366,-0.230836 l -3.98489,0.08545 3.7e-4,-16.867186 3.7e-4,-16.867187 h 67.73333 67.73333 l 2.65e-4,16.867187 2.64e-4,16.867186 -3.984892,-0.08545 c -2.814164,-0.06035 -4.096858,0.0075 -4.365995,0.230836 -0.566949,0.470527 -0.566949,16.436622 0,16.907149 0.269137,0.223364 1.551831,0.291182 4.365995,0.230836 l 3.984892,-0.08545 v 16.801041 16.8010408 l -3.984892,-0.085452 c -2.814164,-0.060346 -4.096858,0.00746 -4.365995,0.2308357 -0.566949,0.470527 -0.566949,16.4366215 0,16.9071485 0.269137,0.223364 1.551831,0.291182 4.365995,0.230836 l 3.985101,-0.08545 -3.68e-4,16.867186 -3.7e-4,16.867187 h -67.73333 -67.73333 z m 20.57172,4.000423 c 0.58331,-0.156318 0.59532,-0.238397 0.59532,-4.069119 0,-3.320955 -0.063,-3.933764 -0.41852,-4.070183 -0.81262,-0.311833 -7.66089,-0.17744 -7.99523,0.1569 -0.21616,0.216157 -0.3175,1.478746 -0.3175,3.955603 0,3.185734 0.0576,3.671636 0.46302,3.907787 0.49586,0.288814 6.6813,0.384755 7.67291,0.119012 z m 17.47573,-0.150735 c 0.33421,-0.334206 0.46788,-6.920267 0.1569,-7.730651 -0.137,-0.357029 -0.7706,-0.418516 -4.31271,-0.418516 -2.87664,0 -4.24964,0.09753 -4.4696,0.3175 -0.40128,0.401273 -0.43838,6.899759 -0.0436,7.637394 0.25242,0.471662 0.59044,0.511773 4.3127,0.511773 2.78853,0 4.13711,-0.09829 4.35632,-0.3175 z m 84.472391,0.04361 c 0.467924,-0.250425 0.511773,-0.585943 0.511773,-3.915833 0,-2.479844 -0.101312,-3.743253 -0.3175,-3.959442 -0.240697,-0.240696 -4.654597,-0.3175 -18.246941,-0.3175 -17.455522,0 -17.936678,0.01352 -18.203333,0.511773 -0.15064,0.281475 -0.273891,1.999377 -0.273891,3.817559 0,2.652482 0.08217,3.387955 0.415774,3.72156 0.369639,0.369639 2.367942,0.415775 18.00906,0.415775 11.621523,0 17.767,-0.09297 18.105058,-0.273892 z M -156.876,-7.0634503 c 0.627,-0.2406015 0.627,-7.9048657 0,-8.1454677 -0.70954,-0.272277 -7.25823,-0.17717 -7.80096,0.113292 -0.46834,0.250645 -0.51177,0.586394 -0.51177,3.955603 0,3.2272655 0.0571,3.7149984 0.46302,3.9513957 0.49468,0.2881259 7.14856,0.3942344 7.84971,0.125177 z m 17.45583,-0.2579158 c 0.20913,-0.5449782 0.20913,-7.0846579 0,-7.6296359 -0.137,-0.357029 -0.7706,-0.418515 -4.31271,-0.418515 -2.87664,0 -4.24964,0.09753 -4.4696,0.3175 -0.44166,0.441653 -0.44166,7.3900131 0,7.8316661 0.21996,0.2199693 1.59296,0.3175 4.4696,0.3175 3.54211,0 4.17571,-0.061486 4.31271,-0.4185152 z m 84.509764,0.1010152 c 0.215818,-0.2158179 0.3175,-1.4699085 0.3175,-3.9158331 0,-2.445925 -0.101682,-3.700015 -0.3175,-3.915833 -0.240647,-0.240647 -4.62307,-0.3175 -18.105058,-0.3175 -15.81773,0 -17.833604,0.04604 -18.203333,0.415774 -0.609081,0.609081 -0.609081,7.0260366 0,7.635118 0.369729,0.3697313 2.385603,0.4157741 18.203333,0.4157741 13.481988,0 17.864411,-0.076854 18.105058,-0.3175 z M -156.876,-57.863448 c 0.3555,-0.136419 0.41852,-0.749229 0.41852,-4.070182 0,-3.830724 -0.012,-3.912802 -0.59532,-4.069121 -1.00455,-0.269211 -7.08049,-0.183837 -7.62416,0.107129 -0.46792,0.250424 -0.51177,0.585942 -0.51177,3.915833 0,2.479843 0.10131,3.743251 0.3175,3.959441 0.33434,0.334342 7.18261,0.468734 7.99523,0.1569 z m 17.45583,-0.257915 c 0.31098,-0.810385 0.17731,-7.396447 -0.1569,-7.730652 -0.21921,-0.219211 -1.56779,-0.3175 -4.35632,-0.3175 -3.72226,0 -4.06028,0.04011 -4.3127,0.511773 -0.39477,0.737634 -0.35767,7.236121 0.0436,7.637394 0.21996,0.219968 1.59296,0.3175 4.4696,0.3175 3.54211,0 4.17571,-0.06149 4.31271,-0.418515 z m 84.509764,0.101015 c 0.216188,-0.21619 0.3175,-1.479598 0.3175,-3.959441 0,-3.329891 -0.04385,-3.665409 -0.511773,-3.915833 -0.338058,-0.180924 -6.483535,-0.273893 -18.105058,-0.273893 -15.641118,0 -17.639421,0.04614 -18.00906,0.415774 -0.333608,0.333607 -0.415774,1.069078 -0.415774,3.721561 0,1.818182 0.123251,3.536084 0.273891,3.817559 0.266655,0.498245 0.747811,0.511773 18.203333,0.511773 13.592344,0 18.006244,-0.0768 18.246941,-0.3175 z"
         id="path416" /><path
         style="fill:#06475d;stroke-width:0.264583"
         d="m -109.95501,39.729959 -0.0681,-16.867186 -29.36875,-0.132292 -29.36875,-0.132292 V 14.263815 5.9294402 l 29.36875,-0.1322917 29.36875,-0.1322917 V -11.136184 -27.937225 l -29.36875,-0.132291 -29.36875,-0.132292 v -8.334375 -8.334374 l 29.36875,-0.132292 29.36875,-0.132292 0.0681,-16.867186 0.0681,-16.867187 h 33.864703 33.864707 l 2.65e-4,16.867187 2.64e-4,16.867186 -4.140078,-0.08533 c -3.218018,-0.06633 -4.189492,-0.0074 -4.361939,0.264583 -0.289684,0.456888 -0.289684,16.382528 0,16.839416 0.172447,0.271987 1.143921,0.330912 4.361939,0.264584 l 4.140078,-0.08533 v 16.801041 16.8010408 l -4.140078,-0.085333 c -3.218018,-0.066328 -4.189492,-0.00741 -4.361939,0.2645833 -0.289684,0.4568878 -0.289684,16.3825279 0,16.8394159 0.172447,0.271986 1.143921,0.330911 4.361939,0.264583 l 4.140279,-0.08533 -3.65e-4,16.867186 -3.65e-4,16.867187 H -76.022197 -109.8869 Z m 55.229812,-0.06615 v -4.101041 h -18.38854 -18.388541 l -0.07359,3.800374 c -0.0501,2.587387 0.02405,3.918029 0.232338,4.169 0.257099,0.309785 3.204115,0.35778 18.462135,0.300667 l 18.156202,-0.06796 z m 0,-50.799997 v -4.101041 h -18.38854 -18.388541 l -0.07374,3.824289 c -0.04056,2.1033612 -0.01421,3.979413 0.05854,4.1690028 0.107272,0.2795429 3.59747,0.3318616 18.462283,0.2767489 l 18.330001,-0.067958 z m 0,-50.799997 v -4.101042 l -18.09462,-0.06799 c -13.146386,-0.0494 -18.193088,0.01372 -18.454687,0.230834 -0.272788,0.226394 -0.360066,1.210217 -0.360066,4.058792 0,2.06798 0.08019,3.840148 0.178186,3.93815 0.098,0.098 8.402611,0.147612 18.454687,0.110243 l 18.2765,-0.06794 z"
         id="path414" /><path
         style="fill:#02222d;stroke-width:0.264583"
         d="m -109.77081,22.397019 c -0.0704,-0.183407 -0.0964,-3.963641 -0.0578,-8.400521 l 0.0701,-8.0670578 29.220123,-0.067313 c 23.201296,-0.053446 29.263527,0.00106 29.430844,0.2645833 0.244017,0.3843364 0.298606,15.5588335 0.05822,16.1852555 -0.145103,0.378134 -2.979544,0.418515 -29.377051,0.418515 -23.256856,0 -29.242556,-0.06802 -29.344416,-0.333462 z m 0,-50.799998 c -0.0704,-0.183406 -0.0964,-3.96364 -0.0578,-8.40052 l 0.0701,-8.067058 29.220123,-0.06731 c 23.201296,-0.05345 29.263527,0.0011 29.430844,0.264583 0.244017,0.384337 0.298606,15.558833 0.05822,16.185255 -0.145103,0.378135 -2.979544,0.418516 -29.377051,0.418516 -23.256856,0 -29.242556,-0.06802 -29.344416,-0.333463 z"
         id="path412" /></g><text
       xml:space="preserve"
       transform="matrix(4.2783425,0,0,3.7273919,-1841.3878,-153.7031)"
       id="text527"
       style="font-size:33.3333px;line-height:0;font-family:'Source Code Variable';-inkscape-font-specification:'Source Code Variable';white-space:pre;shape-inside:url(#rect529);fill:#ffffff;fill-opacity:1;stroke:#ffffff;stroke-width:3.30709"><tspan
         x="433.64844"
         y="34.081372"
         id="tspan1530">GOSF</tspan></text></g></svg>
